<?xml version="1.0" encoding="UTF-8" standalone="no"?>
<svg
   style="enable-background:new"
   width="22"
   height="22"
   version="1.1"
   id="svg2628"
   sodipodi:docname="config_up.svg"
   inkscape:version="1.2.2 (b0a8486541, 2022-12-01)"
   xmlns:inkscape="http://www.inkscape.org/namespaces/inkscape"
   xmlns:sodipodi="http://sodipodi.sourceforge.net/DTD/sodipodi-0.dtd"
   xmlns="http://www.w3.org/2000/svg"
   xmlns:svg="http://www.w3.org/2000/svg">
  <defs
     id="defs2632" />
  <sodipodi:namedview
     id="namedview2630"
     pagecolor="#ffffff"
     bordercolor="#000000"
     borderopacity="0.25"
     inkscape:showpageshadow="2"
     inkscape:pageopacity="0.0"
     inkscape:pagecheckerboard="0"
     inkscape:deskcolor="#d1d1d1"
     showgrid="false"
     inkscape:zoom="11.586909"
     inkscape:cx="13.031949"
     inkscape:cy="7.4653215"
     inkscape:window-width="1920"
     inkscape:window-height="1016"
     inkscape:window-x="0"
     inkscape:window-y="30"
     inkscape:window-maximized="1"
     inkscape:current-layer="g883" />
  <g
     id="g883">
    <path
       style="opacity:1;fill:#232627;stroke-width:0.2;stroke-dasharray:none"
       d="m 11,3 c -4.4182779,2e-7 -7.9999998,3.5817221 -8,8 2e-7,4.418278 3.5817221,8 8,8 4.418278,0 8,-3.581722 8,-8 0,-4.4182779 -3.581722,-7.9999998 -8,-8 z m 0,1 c 3.865993,-10e-8 7,3.1340067 7,7 0,3.865993 -3.134007,7 -7,7 -3.8659933,0 -7.0000001,-3.134007 -7,-7 -10e-8,-3.8659933 3.1340067,-7.0000001 7,-7 z"
       id="path2625"
       sodipodi:nodetypes="ssssssssss" />
    <g
       id="g4076"
       transform="translate(0.07350636,0.04576969)">
      <circle
         style="fill:#000000;stroke-width:0.2;stroke-dasharray:none"
         id="circle3240"
         cx="10.926494"
         cy="10.95423"
         r="1.0984744" />
      <circle
         style="fill:#000000;stroke-width:0.2;stroke-dasharray:none"
         id="circle3242"
         cx="14.926494"
         cy="10.95423"
         r="1.0984744" />
      <circle
         style="fill:#000000;stroke-width:0.2;stroke-dasharray:none"
         id="circle3244"
         cx="6.9264936"
         cy="10.95423"
         r="1.0984744" />
    </g>
  </g>
</svg>
