<svg width="16" height="24" viewBox="0 0 16 24" fill="none" xmlns="http://www.w3.org/2000/svg">
<path d="M2.63672 22.9922H13.3594C15.082 22.9922 15.9961 22.0547 15.9961 20.2031V12.1289C15.9961 10.2773 15.082 9.35156 13.3594 9.35156H2.63672C0.914062 9.35156 0 10.2773 0 12.1289V20.2031C0 22.0547 0.914062 22.9922 2.63672 22.9922ZM2.05078 10.2539H3.91406V6.29297C3.91406 3.33984 5.80078 1.76953 7.99219 1.76953C10.1836 1.76953 12.0938 3.33984 12.0938 6.29297V10.2539H13.9453V6.55078C13.9453 2.14453 11.0625 0 7.99219 0C4.93359 0 2.05078 2.14453 2.05078 6.55078V10.2539Z" fill="black"/>
</svg>
