<?xml version="1.0" encoding="UTF-8" standalone="no"?>
<!-- Created with Inkscape (http://www.inkscape.org/) -->

<svg
   width="24"
   height="24"
   id="svg4428"
   version="1.1"
   inkscape:version="1.4.2 (ebf0e940d0, 2025-05-08)"
   sodipodi:docname="minus_up.svg"
   xmlns:inkscape="http://www.inkscape.org/namespaces/inkscape"
   xmlns:sodipodi="http://sodipodi.sourceforge.net/DTD/sodipodi-0.dtd"
   xmlns="http://www.w3.org/2000/svg"
   xmlns:svg="http://www.w3.org/2000/svg"
   xmlns:rdf="http://www.w3.org/1999/02/22-rdf-syntax-ns#"
   xmlns:cc="http://creativecommons.org/ns#"
   xmlns:dc="http://purl.org/dc/elements/1.1/">
  <defs
     id="defs4430" />
  <sodipodi:namedview
     id="base"
     pagecolor="#eff0f1"
     bordercolor="#666666"
     borderopacity="1.0"
     inkscape:pageopacity="1"
     inkscape:pageshadow="2"
     inkscape:zoom="12.074264"
     inkscape:cx="31.099204"
     inkscape:cy="16.605567"
     inkscape:document-units="px"
     inkscape:current-layer="layer1"
     showgrid="true"
     inkscape:snap-bbox="true"
     inkscape:window-width="1920"
     inkscape:window-height="1014"
     inkscape:window-x="0"
     inkscape:window-y="0"
     inkscape:window-maximized="1"
     showborder="true"
     inkscape:showpageshadow="false"
     inkscape:snap-nodes="false"
     inkscape:bbox-nodes="true"
     inkscape:snap-bbox-edge-midpoints="false"
     inkscape:snap-global="false"
     inkscape:pagecheckerboard="0"
     inkscape:deskcolor="#eff0f1">
    <inkscape:grid
       type="xygrid"
       id="grid4436"
       empspacing="5"
       visible="true"
       enabled="true"
       snapvisiblegridlinesonly="true"
       originx="0"
       originy="0"
       spacingx="1.0666667"
       spacingy="1.0666667"
       units="px" />
  </sodipodi:namedview>
  <metadata
     id="metadata4433">
    <rdf:RDF>
      <cc:Work
         rdf:about="">
        <dc:format>image/svg+xml</dc:format>
        <dc:type
           rdf:resource="http://purl.org/dc/dcmitype/StillImage" />
        <dc:title />
      </cc:Work>
    </rdf:RDF>
  </metadata>
  <g
     inkscape:label="Layer 1"
     inkscape:groupmode="layer"
     id="layer1"
     transform="translate(0,-1098.5197)">
    <g
       id="4"
       inkscape:label="#g3842"
       transform="translate(86.4,-3.2)" />
    <g
       inkscape:label="#tab-close-focused"
       transform="matrix(0.49676548,0,0,-0.49676548,30.52473,1108.4446)"
       id="tab-close-focused">
      <path
         id="path14-6"
         style="opacity:0.15;fill:#000000;fill-opacity:1;fill-rule:evenodd;stroke:none;stroke-width:0.0327539"
         d="M 7.0001194,-19 C 14.731977,-19 21,-12.731969 21,-5.0000048 21,2.7319795 14.731977,9 7.0001194,9 -0.7319672,9 -7,2.7319795 -7,-5.0000048 -7,-12.731969 -0.7319672,-19 7.0001194,-19"
         inkscape:connector-curvature="0" />
      <path
         transform="matrix(1.4,0,0,-1.4,-281.80771,184.27411)"
         d="m 202.17188,130.24023 c -0.21059,0 -0.42224,0.0785 -0.58204,0.23829 l -0.0156,0.0156 c -0.31962,0.31959 -0.31962,0.84252 0,1.16211 l 3.53906,3.53906 -3.53906,3.53907 c -0.31952,0.31949 -0.31952,0.84252 0,1.1621 l 0.0156,0.0156 c 0.31949,0.31959 0.84253,0.31959 1.16211,0 l 3.53907,-3.53906 3.53906,3.53906 c 0.31951,0.31959 0.84252,0.31959 1.16211,0 l 0.0156,-0.0156 c 0.3195,-0.31948 0.3195,-0.84261 0,-1.1621 l -3.53906,-3.53907 3.53906,-3.53906 c 0.3195,-0.31959 0.31959,-0.84262 0,-1.16211 l -0.0156,-0.0156 c -0.31968,-0.31949 -0.8426,-0.31949 -1.16211,0 l -3.53906,3.53906 -3.53907,-3.53906 c -0.15979,-0.1598 -0.36949,-0.23829 -0.58007,-0.23829 z"
         style="opacity:0.5;fill:#000000;fill-opacity:1;fill-rule:evenodd;stroke:none;stroke-width:0.0233956"
         id="path18" />
    </g>
    <g
       inkscape:label="#tab-close-pressed"
       transform="matrix(0.49676548,0,0,-0.49676548,49.801139,1108.4446)"
       id="tab-close-pressed">
      <path
         id="path14-4"
         style="opacity:0.25;fill:#000000;fill-opacity:1;fill-rule:evenodd;stroke:none;stroke-width:0.032754"
         d="M 7.0001233,-19 C 14.731979,-19 21,-12.731937 21,-5.0000692 21,2.7319572 14.731979,9 7.0001233,9 -0.7319597,9 -7.0000003,2.7319572 -7.0000003,-5.0000692 -7.0000003,-12.731937 -0.7319597,-19 7.0001233,-19"
         inkscape:connector-curvature="0" />
      <path
         transform="matrix(1.4,0,0,-1.4,-320.61155,184.27411)"
         d="m 229.88867,130.24023 c -0.21058,0 -0.42224,0.0785 -0.58203,0.23829 l -0.0156,0.0156 c -0.31961,0.31952 -0.31961,0.8426 0,1.16211 l 3.53906,3.53906 -3.53906,3.53907 c -0.31952,0.31958 -0.31952,0.84252 0,1.1621 l 0.0156,0.0156 c 0.31949,0.31959 0.84253,0.31959 1.16211,0 l 3.53906,-3.53906 3.53907,3.53906 c 0.31951,0.31959 0.84252,0.31959 1.1621,0 l 0.0156,-0.0156 c 0.31949,-0.31958 0.31949,-0.84261 0,-1.1621 l -3.53906,-3.53907 3.53906,-3.53906 c 0.31949,-0.31951 0.31959,-0.84259 0,-1.16211 l -0.0156,-0.0156 c -0.31967,-0.31959 -0.84259,-0.31959 -1.1621,0 l -3.53907,3.53906 -3.53906,-3.53906 c -0.15979,-0.1598 -0.36949,-0.23829 -0.58008,-0.23829 z"
         style="opacity:0.5;fill:#000000;fill-opacity:1;fill-rule:evenodd;stroke:none;stroke-width:0.0233957"
         id="path18-6" />
    </g>
    <g
       id="tab-close-normal"
       transform="matrix(0.49676548,0,0,-0.49676548,8.5226416,1108.0359)"
       inkscape:label="">
      <path
         transform="matrix(1.4,0,0,-1.4,-207.95502,184.27411)"
         d="m 149.41992,130.24023 c -0.21058,0 -0.42224,0.0785 -0.58203,0.23829 l -0.0156,0.0156 c -0.31962,0.31959 -0.31962,0.84252 0,1.16211 l 3.53906,3.53906 -3.53906,3.53907 c -0.31952,0.31949 -0.31952,0.84252 0,1.1621 l 0.0156,0.0156 c 0.31949,0.31959 0.84252,0.31959 1.16211,0 l 3.53906,-3.53906 3.53906,3.53906 c 0.31952,0.31959 0.84253,0.31959 1.16211,0 l 0.0156,-0.0156 c 0.31949,-0.31948 0.31949,-0.84261 0,-1.1621 l -3.53906,-3.53907 3.53906,-3.53906 c 0.31949,-0.31959 0.31959,-0.84262 0,-1.16211 l -0.0156,-0.0156 c -0.31967,-0.31949 -0.84259,-0.31949 -1.16211,0 l -3.53906,3.53906 L 150,130.47852 c -0.15979,-0.1598 -0.36949,-0.23829 -0.58008,-0.23829 z"
         style="opacity:0.5;fill:#000000;fill-opacity:1;fill-rule:evenodd;stroke:none;stroke-width:0.0233956"
         id="path2927" />
      <path
         inkscape:connector-curvature="0"
         d="M 7.0001194,-19 C 14.731977,-19 21,-12.731969 21,-5.0000048 21,2.7319795 14.731977,9 7.0001194,9 -0.7319672,9 -7,2.7319795 -7,-5.0000048 -7,-12.731969 -0.7319672,-19 7.0001194,-19"
         style="opacity:0;fill:none;fill-opacity:1;fill-rule:evenodd;stroke:none;stroke-width:0.0327539"
         id="path2923" />
    </g>
    <g
       inkscape:label=""
       transform="matrix(0.49676548,0,0,-0.49676548,71.355192,1108.4446)"
       id="tab-close-disabled">
      <path
         id="path2936"
         style="opacity:0.25;fill:#000000;fill-opacity:1;fill-rule:evenodd;stroke:none;stroke-width:0.0233956"
         d="m 149.41992,130.24023 c -0.21058,0 -0.42224,0.0785 -0.58203,0.23829 l -0.0156,0.0156 c -0.31962,0.31959 -0.31962,0.84252 0,1.16211 l 3.53906,3.53906 -3.53906,3.53907 c -0.31952,0.31949 -0.31952,0.84252 0,1.1621 l 0.0156,0.0156 c 0.31949,0.31959 0.84252,0.31959 1.16211,0 l 3.53906,-3.53906 3.53906,3.53906 c 0.31952,0.31959 0.84253,0.31959 1.16211,0 l 0.0156,-0.0156 c 0.31949,-0.31948 0.31949,-0.84261 0,-1.1621 l -3.53906,-3.53907 3.53906,-3.53906 c 0.31949,-0.31959 0.31959,-0.84262 0,-1.16211 l -0.0156,-0.0156 c -0.31967,-0.31949 -0.84259,-0.31949 -1.16211,0 l -3.53906,3.53906 L 150,130.47852 c -0.15979,-0.1598 -0.36949,-0.23829 -0.58008,-0.23829 z"
         transform="matrix(1.4,0,0,-1.4,-207.95502,184.27411)" />
      <path
         id="path2938"
         style="opacity:0;fill:none;fill-opacity:1;fill-rule:evenodd;stroke:none;stroke-width:0.0327539"
         d="M 7.0001194,-19 C 14.731977,-19 21,-12.731969 21,-5.0000048 21,2.7319795 14.731977,9 7.0001194,9 -0.7319672,9 -7,2.7319795 -7,-5.0000048 -7,-12.731969 -0.7319672,-19 7.0001194,-19"
         inkscape:connector-curvature="0" />
    </g>
  </g>
</svg>
