<?xml version="1.0" encoding="UTF-8" standalone="no"?>
<svg
   style="enable-background:new"
   width="22"
   height="22"
   version="1.1"
   id="svg2628"
   sodipodi:docname="plus_up.svg"
   inkscape:version="1.2.2 (b0a8486541, 2022-12-01)"
   inkscape:export-filename="plus_up.png"
   inkscape:export-xdpi="130.90909"
   inkscape:export-ydpi="130.90909"
   xmlns:inkscape="http://www.inkscape.org/namespaces/inkscape"
   xmlns:sodipodi="http://sodipodi.sourceforge.net/DTD/sodipodi-0.dtd"
   xmlns="http://www.w3.org/2000/svg"
   xmlns:svg="http://www.w3.org/2000/svg">
  <defs
     id="defs2632" />
  <sodipodi:namedview
     id="namedview2630"
     pagecolor="#ffffff"
     bordercolor="#000000"
     borderopacity="0.25"
     inkscape:showpageshadow="2"
     inkscape:pageopacity="0.0"
     inkscape:pagecheckerboard="0"
     inkscape:deskcolor="#d1d1d1"
     showgrid="false"
     inkscape:zoom="32.772728"
     inkscape:cx="6.8044381"
     inkscape:cy="14.08183"
     inkscape:window-width="1920"
     inkscape:window-height="1016"
     inkscape:window-x="0"
     inkscape:window-y="30"
     inkscape:window-maximized="1"
     inkscape:current-layer="g883" />
  <g
     id="g883">
    <path
       d="m 2.9950178,11.000041 c 0,0.475433 0.3978252,0.863513 0.8635704,0.863513 h 6.2778578 v 6.277916 c 0,0.465745 0.388163,0.863512 0.863595,0.863512 0.475433,0 0.873282,-0.397767 0.873282,-0.863512 v -6.277916 h 6.268146 c 0.465746,0 0.863513,-0.38808 0.863513,-0.863513 0,-0.475432 -0.397767,-0.873283 -0.863513,-0.873283 H 11.873323 V 3.8585885 c 0,-0.4657453 -0.397849,-0.8635706 -0.873282,-0.8635706 -0.475432,0 -0.863595,0.3978252 -0.863595,0.8635705 V 10.126758 H 3.8585882 c -0.4657452,0 -0.8635704,0.397851 -0.8635704,0.873283 z"
       fill="#000000"
       id="path699"
       style="stroke-width:0.827992;enable-background:new" />
  </g>
</svg>
